<svg width="1920" height="900" viewBox="0 0 1920 900" fill="none" xmlns="http://www.w3.org/2000/svg">
<path d="M1920 900H0V0H1920V900ZM559.084 323.4C546.284 323.4 534.184 325.4 522.784 329.4C511.384 333.4 502.185 339.6 495.185 348C488.185 356.2 484.685 366.9 484.685 380.1C484.685 391.1 487.085 400.6 491.885 408.6C496.885 416.6 503.485 423.8 511.685 430.2C519.884 436.6 528.684 443 538.084 449.4C546.684 455 554.184 460.6 560.584 466.2C567.184 471.6 572.385 477.5 576.185 483.9C579.984 490.1 581.885 497.4 581.885 505.8C581.885 512 580.385 517.3 577.385 521.7C574.385 526.1 570.184 529.5 564.784 531.9C559.584 534.1 553.284 535.2 545.885 535.2C533.085 535.2 522.784 531.5 514.984 524.1C507.385 516.5 501.685 506.6 497.885 494.4C494.285 482.2 492.084 469.1 491.284 455.1H484.385C484.385 472.099 484.284 486.1 484.084 497.1C484.084 508.099 483.984 517.1 483.784 524.1C483.784 530.899 483.585 536.9 483.185 542.1H490.084C490.684 537.7 491.385 534.4 492.185 532.2C493.185 530 494.685 528.9 496.685 528.9C499.085 528.9 502.485 530.3 506.885 533.1C512.485 535.7 519.284 538.2 527.284 540.6C535.484 543 546.384 544.2 559.984 544.2C574.584 544.2 588.084 542.1 600.484 537.9C612.884 533.5 622.785 526.9 630.185 518.1C637.784 509.3 641.584 498.2 641.584 484.8C641.584 473.8 639.384 464.4 634.984 456.6C630.584 448.8 624.684 441.8 617.284 435.6C610.084 429.4 601.984 423.2 592.984 417C580.384 408.2 570.185 400.9 562.385 395.1C554.785 389.3 549.184 383.8 545.584 378.6C541.984 373.2 540.185 366.8 540.185 359.4C540.185 350.4 543.085 343.5 548.885 338.7C554.685 333.9 561.984 331.5 570.784 331.5C581.184 331.5 590.084 334.9 597.484 341.7C605.084 348.5 610.985 357.1 615.185 367.5C619.584 377.9 622.184 388.6 622.984 399.6H629.885V363.3C630.085 354.1 630.284 346.7 630.484 341.1C630.884 335.5 631.185 330.6 631.385 326.4H624.484C623.884 330.8 623.084 334.1 622.084 336.3C621.284 338.5 619.885 339.599 617.885 339.6C616.485 339.6 614.985 339.3 613.385 338.7C611.985 337.9 610.084 336.8 607.685 335.4C602.685 332.6 596.585 329.9 589.385 327.3C582.185 324.7 572.084 323.4 559.084 323.4ZM1164.56 323.4C1142.36 323.4 1122.76 328.1 1105.76 337.5C1088.76 346.9 1075.36 360 1065.56 376.8C1055.96 393.6 1051.16 413.2 1051.16 435.6C1051.16 458.4 1055.86 477.9 1065.26 494.1C1074.66 510.3 1087.86 522.7 1104.86 531.3C1121.86 539.9 1141.66 544.2 1164.26 544.2C1177.26 544.2 1187.86 542.3 1196.06 538.5C1204.46 534.5 1212.36 529.9 1219.76 524.7C1224.16 521.9 1227.26 521.6 1229.06 523.8C1231.06 526 1232.46 531.4 1233.26 540H1240.16C1239.76 531.8 1239.46 521.7 1239.26 509.7C1239.06 497.5 1238.96 481.6 1238.96 462H1232.06C1230.66 478.4 1228.16 491.8 1224.56 502.2C1221.16 512.6 1214.46 520.9 1204.46 527.1C1200.26 529.7 1195.76 531.9 1190.96 533.7C1186.36 535.3 1181.56 536.1 1176.56 536.1C1165.16 536.1 1155.76 533 1148.36 526.8C1140.96 520.4 1135.16 512.2 1130.96 502.2C1126.96 492 1124.16 481 1122.56 469.2C1120.96 457.2 1120.16 445.6 1120.16 434.4C1120.16 423.201 1120.96 411.7 1122.56 399.9C1124.16 387.901 1126.96 376.9 1130.96 366.9C1135.16 356.7 1140.96 348.5 1148.36 342.3C1155.76 335.9 1165.16 332.7 1176.56 332.7C1181.56 332.7 1186.36 333.5 1190.96 335.1C1195.76 336.7 1200.26 338.9 1204.46 341.7C1211.26 346.1 1216.46 351.2 1220.06 357C1223.66 362.8 1226.36 369.5 1228.16 377.1C1229.96 384.5 1231.26 393 1232.06 402.6H1238.96C1238.96 383.6 1239.06 368.4 1239.26 357C1239.46 345.4 1239.76 335.6 1240.16 327.6H1233.26C1232.46 336.199 1230.96 341.699 1228.76 344.1C1226.76 346.3 1223.76 345.9 1219.76 342.9C1213.16 337.7 1205.56 333.2 1196.96 329.4C1188.56 325.4 1177.76 323.4 1164.56 323.4ZM660.869 333.6C666.869 333.8 671.369 334.6 674.369 336C677.569 337.2 679.669 339.6 680.669 343.2C681.669 346.6 682.169 352.001 682.169 359.4V508.2C682.169 515.4 681.669 520.8 680.669 524.4C679.669 528 677.669 530.4 674.669 531.6C671.669 532.8 667.069 533.6 660.869 534V540C669.069 539.8 677.769 539.6 686.969 539.4C696.169 539.2 705.368 539.1 714.568 539.1C726.968 539.1 738.669 539.2 749.669 539.4C760.669 539.6 769.569 539.8 776.369 540V533.1C767.169 533.1 760.169 532.5 755.369 531.3C750.569 530.1 747.269 527.5 745.469 523.5C743.869 519.5 743.068 513.4 743.068 505.2V454.2H754.169C773.369 454.2 789.168 452.1 801.568 447.9C814.168 443.7 824.069 438.3 831.269 431.7C838.469 424.9 843.568 417.6 846.568 409.8C849.568 401.8 851.068 394.2 851.068 387C851.068 369.6 843.568 355.4 828.568 344.4C813.768 333.4 791.169 327.9 760.769 327.9C756.969 327.9 750.468 328 741.269 328.2C732.069 328.4 722.469 328.5 712.469 328.5C702.869 328.5 693.269 328.4 683.669 328.2C674.269 328 666.669 327.8 660.869 327.6V333.6ZM954.975 327.6C950.175 328 944.874 328.2 939.074 328.2C933.474 328.2 928.275 328 923.475 327.6L856.874 498.9C852.074 511.3 847.374 520.1 842.774 525.3C838.374 530.3 833.874 533.2 829.274 534V540C832.274 539.6 835.874 539.4 840.074 539.4C844.474 539.2 848.574 539.1 852.374 539.1C859.374 539.1 865.774 539.2 871.574 539.4C877.574 539.4 884.274 539.6 891.674 540V534C885.674 533.8 880.474 532.9 876.074 531.3C871.674 529.7 868.475 526.8 866.475 522.6C864.475 518.4 863.975 512.4 864.975 504.6C866.175 496.6 869.274 486.099 874.274 473.1L879.464 459.6H939.904L957.674 508.8C961.674 519 962.275 525.7 959.475 528.9C956.875 531.9 950.474 533.6 940.274 534V540C945.674 539.6 952.874 539.4 961.874 539.4C970.874 539.2 980.474 539.1 990.674 539.1C1000.67 539.1 1010.47 539.2 1020.07 539.4C1029.67 539.4 1038.07 539.6 1045.27 540V534C1042.67 533.8 1039.77 532.3 1036.57 529.5C1033.37 526.5 1030.37 521.6 1027.57 514.8L954.975 327.6ZM1431.5 327.6C1422.3 328 1411.8 328.3 1400 328.5H1321.1C1311.5 328.3 1301.7 328.2 1291.7 328.2C1281.9 328 1272.6 327.8 1263.8 327.6V333.6C1269.8 333.8 1274.3 334.6 1277.3 336C1280.5 337.2 1282.6 339.6 1283.6 343.2C1284.6 346.6 1285.1 352.001 1285.1 359.4V508.2C1285.1 515.4 1284.6 520.8 1283.6 524.4C1282.6 528 1280.6 530.4 1277.6 531.6C1274.6 532.8 1270 533.6 1263.8 534V540C1272.6 539.8 1281.9 539.7 1291.7 539.7C1301.7 539.5 1311.5 539.4 1321.1 539.4C1330.9 539.2 1339.9 539.1 1348.1 539.1H1368.8C1378.8 539.1 1390.2 539.2 1403 539.4C1415.8 539.4 1427.3 539.6 1437.5 540C1436.5 530 1435.9 520.4 1435.7 511.2C1435.5 501.8 1435.4 494.6 1435.4 489.6C1435.4 478.4 1435.7 469.2 1436.3 462H1429.4C1426.2 480 1421.5 494.2 1415.3 504.6C1409.1 515 1402.3 522.4 1394.9 526.8C1387.7 531 1380.8 533.1 1374.2 533.1H1364.3C1359.1 533.1 1355.2 532.7 1352.6 531.9C1350 530.9 1348.2 529.1 1347.2 526.5C1346.4 523.7 1346 519.6 1346 514.2V436.2H1349C1356.6 436.2 1363.3 438 1369.1 441.6C1374.9 445 1379.6 449.7 1383.2 455.7C1387 461.7 1389.5 468.4 1390.7 475.8H1397.6C1396.8 464.4 1396.3 455.7 1396.1 449.7C1395.9 443.7 1395.8 438.2 1395.8 433.2C1395.8 428.2 1395.7 422.7 1395.5 416.7C1395.5 410.7 1395.9 402 1396.7 390.6H1389.8C1389 395 1387.4 399.5 1385 404.1C1382.8 408.7 1379.9 413 1376.3 417C1372.9 421 1368.9 424.2 1364.3 426.6C1359.7 429 1354.6 430.2 1349 430.2H1346V353.4C1346 347.8 1346.4 343.7 1347.2 341.1C1348.2 338.5 1350 336.8 1352.6 336C1355.2 335 1359.1 334.5 1364.3 334.5H1368.2C1376.4 334.5 1384.2 336.5 1391.6 340.5C1399.2 344.3 1405.8 351 1411.4 360.6C1417 370 1421 383 1423.4 399.6H1430.3C1430.1 397 1429.9 393.8 1429.7 390C1429.5 386.2 1429.4 382.2 1429.4 378C1429.4 373 1429.5 365.9 1429.7 356.7C1430.1 347.3 1430.7 337.6 1431.5 327.6ZM937.737 453.6H881.771L910.625 378.534L937.737 453.6ZM759.269 333.6C769.869 333.6 777.269 338.3 781.469 347.7C785.869 357.1 788.068 371.3 788.068 390.3C788.068 400.5 787.068 410 785.068 418.8C783.268 427.6 779.669 434.7 774.269 440.1C769.069 445.5 761.369 448.2 751.169 448.2H743.068V359.4C743.068 349.001 744.068 342.1 746.068 338.7C748.068 335.3 752.469 333.6 759.269 333.6Z" fill="#F5F1E8"/>
</svg>
