<svg width="126" height="37" viewBox="0 0 126 37" fill="none" xmlns="http://www.w3.org/2000/svg">
<path fill-rule="evenodd" clip-rule="evenodd" d="M34.2646 3.96623C34.2646 2.27001 35.5581 0.880859 37.3257 0.880859C38.2023 0.880859 38.7916 1.08558 39.3089 1.45114C39.4383 1.5535 39.582 1.74359 39.5676 2.0068C39.5532 2.35774 39.2371 2.63557 38.8922 2.62095C38.7341 2.62095 38.6191 2.54784 38.5473 2.48935C38.2023 2.24076 37.8287 2.07991 37.2682 2.07991C36.3341 2.07991 35.6012 2.9134 35.6012 3.92236C35.6012 5.01906 36.3341 5.82331 37.3688 5.82331C37.8287 5.82331 38.2455 5.70632 38.576 5.47236V4.62425H37.7281C37.4407 4.62425 37.182 4.40491 37.1533 4.11246C37.1245 3.77614 37.3832 3.49831 37.7137 3.49831H39.0934C39.4958 3.49831 39.8263 3.83463 39.8263 4.24406V5.58934C39.8263 5.96953 39.6826 6.23274 39.3808 6.42283C38.9065 6.71528 38.2167 7.02236 37.3401 7.02236C35.5293 7.02236 34.279 5.72095 34.279 3.96623H34.2646Z" fill="#808284"/>
<path fill-rule="evenodd" clip-rule="evenodd" d="M40.6452 1.57989C40.6452 1.22895 40.9183 0.936498 41.2632 0.921875C41.6225 0.921875 41.9243 1.22895 41.9243 1.60914V5.71809H44.2668C44.5973 5.71809 44.8847 5.99592 44.8704 6.33224C44.8704 6.65394 44.6117 6.90253 44.2811 6.90253H41.5794C41.062 6.90253 40.6309 6.46385 40.6309 5.93743V1.57989H40.6452Z" fill="#808284"/>
<path fill-rule="evenodd" clip-rule="evenodd" d="M44.7842 3.96623C44.7842 2.27001 46.092 0.880859 47.8884 0.880859C49.6847 0.880859 50.9782 2.24076 50.9782 3.93699C50.9782 5.63321 49.6704 7.02236 47.874 7.02236C46.0776 7.02236 44.7842 5.66246 44.7842 3.96623ZM49.6416 3.96623C49.6416 2.92803 48.9087 2.07991 47.874 2.07991C46.8393 2.07991 46.1207 2.9134 46.1207 3.92236C46.1207 4.96057 46.8536 5.80868 47.8884 5.80868C48.9231 5.80868 49.6416 4.97519 49.6416 3.96623Z" fill="#808284"/>
<path fill-rule="evenodd" clip-rule="evenodd" d="M51.6963 1.94947C51.6963 1.42305 52.1274 0.984375 52.6448 0.984375H54.3981C55.0591 0.984375 55.5909 1.17447 55.9214 1.51079C56.1945 1.78862 56.3238 2.11032 56.3238 2.51975C56.3238 3.20701 55.9789 3.57258 55.5621 3.82116C56.2376 4.08437 56.6543 4.47918 56.6543 5.28343C56.6543 6.38012 55.7921 6.92116 54.4699 6.92116H52.6448C52.1274 6.92116 51.6963 6.48248 51.6963 5.95607V1.94947ZM54.1394 3.38248C54.6999 3.38248 55.0591 3.19239 55.0591 2.75371C55.0591 2.34428 54.7573 2.12494 54.2112 2.12494H52.9466V3.38248H54.125H54.1394ZM54.4699 5.76597C55.0304 5.76597 55.3753 5.56126 55.3753 5.12258C55.3753 4.71314 55.0879 4.46456 54.4268 4.46456H52.9466V5.76597H54.4699Z" fill="#808284"/>
<path fill-rule="evenodd" clip-rule="evenodd" d="M57.0565 6.07094L59.0828 1.40632C59.2266 1.08463 59.4852 0.894531 59.8301 0.894531H59.902C60.2469 0.894531 60.5056 1.08463 60.6493 1.40632L62.6756 6.07094C62.7187 6.15867 62.7475 6.24641 62.7475 6.33415C62.7475 6.68509 62.4744 6.96292 62.1439 6.96292C61.8421 6.96292 61.6409 6.78745 61.5259 6.50962L61.1379 5.57377H58.5799L58.1775 6.55348C58.0625 6.80207 57.8469 6.96292 57.5882 6.96292C57.2577 6.96292 56.999 6.68509 56.999 6.34877C56.999 6.26103 57.0278 6.15867 57.0709 6.07094H57.0565ZM60.6637 4.4332L59.8589 2.47377L59.0541 4.4332H60.6637Z" fill="#808284"/>
<path fill-rule="evenodd" clip-rule="evenodd" d="M63.2507 1.57989C63.2507 1.22895 63.5238 0.936498 63.8687 0.921875C64.2279 0.921875 64.5297 1.22895 64.5297 1.60914V5.71809H66.8722C67.2028 5.71809 67.4902 5.99592 67.4758 6.33224C67.4758 6.65394 67.2171 6.90253 66.8866 6.90253H64.1848C63.6531 6.90253 63.2363 6.46385 63.2363 5.93743V1.57989H63.2507Z" fill="#808284"/>
<path fill-rule="evenodd" clip-rule="evenodd" d="M69.9621 6.29028C69.8184 6.18792 69.7178 5.99783 69.7178 5.79311C69.7178 5.45679 69.9908 5.19358 70.3214 5.19358C70.4938 5.19358 70.6088 5.25207 70.6806 5.31056C71.1261 5.64688 71.6004 5.83698 72.1752 5.83698C72.6926 5.83698 73.0231 5.63226 73.0231 5.28132C73.0231 4.93037 72.8219 4.76953 71.8447 4.50632C70.6663 4.19924 69.919 3.87755 69.919 2.69311C69.919 1.59642 70.7669 0.894531 71.9597 0.894531C72.6639 0.894531 73.2818 1.08463 73.8136 1.42095C73.9573 1.50868 74.101 1.68415 74.101 1.93274C74.101 2.26906 73.8279 2.53226 73.4974 2.53226C73.368 2.53226 73.2675 2.50302 73.1669 2.44453C72.7357 2.19594 72.3477 2.04972 71.9453 2.04972C71.4567 2.04972 71.198 2.28368 71.198 2.56151C71.198 2.97094 71.4423 3.10255 72.4483 3.35113C73.6267 3.65821 74.3022 4.09689 74.3022 5.13509C74.3022 6.33415 73.4255 6.99216 72.1609 6.99216C71.3992 6.99216 70.6232 6.7582 69.9765 6.27566L69.9621 6.29028Z" fill="#808284"/>
<path fill-rule="evenodd" clip-rule="evenodd" d="M74.619 6.07094L76.6453 1.40632C76.7891 1.08463 77.0477 0.894531 77.3926 0.894531H77.4645C77.8094 0.894531 78.0681 1.08463 78.2118 1.40632L80.2381 6.07094C80.2812 6.15867 80.31 6.24641 80.31 6.33415C80.31 6.68509 80.0369 6.96292 79.7064 6.96292C79.4046 6.96292 79.2034 6.78745 79.0884 6.50962L78.7004 5.57377H76.1423L75.74 6.55348C75.625 6.80207 75.4094 6.96292 75.1507 6.96292C74.8202 6.96292 74.5615 6.68509 74.5615 6.34877C74.5615 6.26103 74.5903 6.15867 74.6334 6.07094H74.619ZM78.2262 4.4332L77.4214 2.47377L76.6166 4.4332H78.2262Z" fill="#808284"/>
<path fill-rule="evenodd" clip-rule="evenodd" d="M80.9141 5.94144V1.94947C80.9141 1.42305 81.3452 0.984375 81.8626 0.984375H84.7655C85.0673 0.984375 85.3404 1.20371 85.3691 1.51079C85.3979 1.86173 85.1248 2.13956 84.7943 2.13956H82.1931V3.33862H84.3919C84.6937 3.33862 84.9667 3.55796 84.9955 3.86503C85.0242 4.21597 84.7512 4.4938 84.4206 4.4938H82.1931V5.73673H84.8087C85.1104 5.73673 85.3835 5.95607 85.4122 6.26314C85.441 6.61408 85.1679 6.89191 84.8374 6.89191H81.8769C81.3452 6.89191 80.9284 6.45324 80.9284 5.92682L80.9141 5.94144Z" fill="#808284"/>
<path fill-rule="evenodd" clip-rule="evenodd" d="M86.5041 3.2793C86.8778 3.2793 87.1508 3.57175 87.1508 3.93731C87.1508 4.3175 86.8778 4.60996 86.5041 4.60996C86.1305 4.60996 85.8574 4.3175 85.8574 3.95194C85.8574 3.57175 86.1305 3.2793 86.5041 3.2793Z" fill="#808284"/>
<path fill-rule="evenodd" clip-rule="evenodd" d="M87.1659 6.07094L89.1922 1.40632C89.3359 1.08463 89.5946 0.894531 89.9395 0.894531H90.0114C90.3563 0.894531 90.615 1.08463 90.7587 1.40632L92.785 6.07094C92.8281 6.15867 92.8569 6.24641 92.8569 6.33415C92.8569 6.68509 92.5838 6.96292 92.2533 6.96292C91.9515 6.96292 91.7503 6.78745 91.6353 6.50962L91.2473 5.57377H88.6892L88.2868 6.55348C88.1719 6.80207 87.9563 6.96292 87.6976 6.96292C87.3671 6.96292 87.1084 6.68509 87.1084 6.34877C87.1084 6.26103 87.1371 6.15867 87.1803 6.07094H87.1659ZM90.773 4.4332L89.9683 2.47377L89.1635 4.4332H90.773Z" fill="#808284"/>
<path fill-rule="evenodd" clip-rule="evenodd" d="M95.083 3.96623C95.083 2.27001 96.3764 0.880859 98.1441 0.880859C99.0207 0.880859 99.6099 1.08558 100.127 1.45114C100.257 1.5535 100.4 1.74359 100.386 2.0068C100.372 2.35774 100.055 2.63557 99.7105 2.62095C99.5524 2.62095 99.4375 2.54784 99.3656 2.48935C99.0207 2.24076 98.6471 2.07991 98.0866 2.07991C97.1525 2.07991 96.4195 2.9134 96.4195 3.92236C96.4195 5.01906 97.1525 5.82331 98.1872 5.82331C98.6471 5.82331 99.0638 5.70632 99.3944 5.47236V4.62425H98.5465C98.259 4.62425 98.0003 4.40491 97.9716 4.11246C97.9429 3.77614 98.2015 3.49831 98.5321 3.49831H99.9117C100.314 3.49831 100.645 3.83463 100.645 4.24406V5.58934C100.645 5.96953 100.501 6.23274 100.199 6.42283C99.7249 6.71528 99.0351 7.02236 98.1584 7.02236C96.3477 7.02236 95.0974 5.72095 95.0974 3.96623H95.083Z" fill="#808284"/>
<path fill-rule="evenodd" clip-rule="evenodd" d="M101.449 1.94947C101.449 1.42305 101.88 0.984375 102.398 0.984375H104.108C104.855 0.984375 105.43 1.18909 105.804 1.5839C106.134 1.92022 106.307 2.37352 106.307 2.94381C106.307 3.89428 105.847 4.46456 105.143 4.77163L106.034 5.86833C106.163 6.02918 106.235 6.16078 106.235 6.3655C106.235 6.73106 105.933 6.96503 105.631 6.96503C105.344 6.96503 105.143 6.8188 104.999 6.62871L103.749 5.02022H102.728V6.29239C102.728 6.65795 102.426 6.97965 102.067 6.97965C101.722 6.97965 101.449 6.6872 101.449 6.32163V1.94947ZM104.036 3.86503C104.654 3.86503 105.013 3.52871 105.013 3.03154C105.013 2.46126 104.625 2.16881 104.007 2.16881H102.728V3.86503H104.022H104.036Z" fill="#808284"/>
<path fill-rule="evenodd" clip-rule="evenodd" d="M106.795 3.96623C106.795 2.27001 108.103 0.880859 109.899 0.880859C111.695 0.880859 112.989 2.24076 112.989 3.93699C112.989 5.63321 111.681 7.02236 109.885 7.02236C108.088 7.02236 106.795 5.66246 106.795 3.96623ZM111.652 3.96623C111.652 2.92803 110.919 2.07991 109.885 2.07991C108.85 2.07991 108.131 2.9134 108.131 3.92236C108.131 4.96057 108.864 5.80868 109.899 5.80868C110.934 5.80868 111.652 4.97519 111.652 3.96623Z" fill="#808284"/>
<path fill-rule="evenodd" clip-rule="evenodd" d="M113.623 4.37281V1.57989C113.623 1.21433 113.91 0.921875 114.27 0.921875C114.629 0.921875 114.916 1.21433 114.916 1.57989V4.32895C114.916 5.29404 115.391 5.79121 116.167 5.79121C116.943 5.79121 117.417 5.30866 117.417 4.37281V1.57989C117.417 1.21433 117.704 0.921875 118.064 0.921875C118.423 0.921875 118.71 1.21433 118.71 1.57989V4.32895C118.71 6.12753 117.719 7.00488 116.152 7.00488C114.586 7.00488 113.623 6.11291 113.623 4.37281Z" fill="#808284"/>
<path fill-rule="evenodd" clip-rule="evenodd" d="M119.6 1.94947C119.6 1.42305 120.031 0.984375 120.548 0.984375H121.985C123.379 0.984375 124.213 1.81786 124.213 3.03154C124.213 4.42069 123.164 5.1372 121.856 5.1372H120.879V6.27776C120.879 6.64333 120.577 6.96503 120.218 6.96503C119.873 6.96503 119.6 6.67257 119.6 6.30701V1.94947ZM121.899 3.96739C122.546 3.96739 122.919 3.57258 122.919 3.07541C122.919 2.47588 122.517 2.15418 121.885 2.15418H120.893V3.96739H121.913H121.899Z" fill="#808284"/>
<path d="M29.8679 3.57227H0.953125V4.31802H29.8679V3.57227Z" fill="#808284"/>
<path fill-rule="evenodd" clip-rule="evenodd" d="M24.2919 23.2525C24.2919 23.2525 23.6883 22.6237 22.5961 21.761C21.7051 21.0445 20.3686 20.1525 18.874 19.2313C18.874 19.2313 17.5375 18.3685 17.6237 17.4912C17.7099 16.6577 18.5004 16.3945 19.7363 16.4968C19.7363 16.4968 22.5674 16.4968 26.9075 19.5091V11.028C26.9075 11.028 20.886 8.49827 15.0082 10.0336C15.0082 10.0336 9.69084 11.0865 9.38904 15.7511C9.38904 15.7511 9.02976 17.7836 10.6968 19.9624C11.401 20.8836 11.9902 21.4832 13.9878 22.7407C13.9878 22.7407 15.9998 24.0567 16.5603 24.627C16.5603 24.627 19.0896 26.4841 19.2333 29.6133C19.2477 30.0959 19.262 30.6515 19.1471 31.1926C19.0177 31.8652 18.7447 32.7279 18.2129 33.5322C18.2129 33.5322 17.5806 34.7751 15.8848 35.7548C15.8848 35.7548 23.9183 37.7435 26.4907 31.9968C26.4907 31.9968 28.5602 27.7416 24.2919 23.2525Z" fill="#ED193A"/>
<path fill-rule="evenodd" clip-rule="evenodd" d="M3.58191 23.0651C3.58191 23.0651 4.1855 23.6939 5.27771 24.5566C6.16872 25.2731 7.49087 26.1651 8.98547 27.0863C8.98547 27.0863 10.322 27.9637 10.2358 28.841C10.1495 29.6745 9.35912 29.9377 8.1232 29.8354C8.1232 29.8354 5.29208 29.8354 0.951989 26.8231V35.3042C0.951989 35.3042 6.97351 37.8339 12.8513 36.2986C12.8513 36.2986 18.1686 35.2457 18.4704 30.5665C18.4704 30.5665 18.8297 28.534 17.1627 26.3552C16.4585 25.434 15.8693 24.8344 13.8717 23.5769C13.8717 23.5769 11.8597 22.2608 11.2992 21.6906C11.2992 21.6906 8.7699 19.8481 8.62619 16.7043C8.61182 16.2217 8.59745 15.666 8.71242 15.125C8.84176 14.467 9.10044 13.5896 9.64654 12.7854C9.64654 12.7854 10.2789 11.5425 11.9747 10.5628C11.9747 10.5628 3.94119 8.5887 1.36875 14.3208C1.36875 14.3208 -0.700695 18.5759 3.56754 23.0651H3.58191Z" fill="#94948B"/>
<path fill-rule="evenodd" clip-rule="evenodd" d="M85.4115 24.3915L93.3731 16.5245V13.834H81.7756V16.6415H88.645L81.0283 24.3915H85.4115Z" fill="black"/>
<path fill-rule="evenodd" clip-rule="evenodd" d="M97.2969 27.3597H100.804V13.7168H97.2969V18.7762H93.3018V21.5838H97.2969V27.3597Z" fill="black"/>
<path fill-rule="evenodd" clip-rule="evenodd" d="M82.7822 26.6006V32.786H100.847V30.0954H85.9295V26.6006H82.7822Z" fill="black"/>
<path fill-rule="evenodd" clip-rule="evenodd" d="M43.4768 24.6289C38.5619 24.6289 34.5811 26.0912 34.5811 29.3374C34.5811 32.5836 38.8062 33.768 43.7211 33.768C47.9893 33.768 52.6169 32.4374 52.6169 29.0596C52.6169 25.6817 48.3917 24.6289 43.4768 24.6289ZM43.6061 31.443C40.8325 31.443 38.5906 30.6827 38.5906 29.2058C38.5906 27.7289 40.8325 26.9685 43.6061 26.9685C46.3798 26.9685 48.6073 27.5827 48.6073 29.2058C48.6073 30.8289 46.3654 31.443 43.6061 31.443Z" fill="black"/>
<path fill-rule="evenodd" clip-rule="evenodd" d="M57.9639 29.2479C57.9639 32.4941 62.2321 33.7662 67.5063 33.7662C72.7805 33.7662 77.0488 32.3478 77.0488 29.2479C77.0488 26.1479 72.7805 24.7148 67.5063 24.7148C62.2321 24.7148 57.9639 26.0016 57.9639 29.2479ZM73.1398 29.2479C73.1398 30.8856 70.6105 31.4412 67.4919 31.4412C64.3734 31.4412 61.8441 30.8856 61.8441 29.2479C61.8441 27.6101 64.3734 27.0398 67.4919 27.0398C70.6105 27.0398 73.1398 27.6101 73.1398 29.2479Z" fill="black"/>
<path fill-rule="evenodd" clip-rule="evenodd" d="M77.8959 21.5279H73.5846V19.7439C75.4241 19.1444 76.5738 18.1793 76.5738 16.7463C76.5738 14.0411 72.4924 12.9736 67.4481 12.9736C62.4038 12.9736 58.3368 13.8217 58.3224 16.7463C58.3224 18.2963 59.4721 19.2614 61.3116 19.817V21.5279H57.0146V24.0722H77.8959V21.5279ZM67.4481 15.2401C70.4517 15.2401 72.8804 15.6057 72.8804 16.7316C72.8804 17.8576 70.4517 18.2232 67.4481 18.2232C64.4445 18.2232 62.0158 17.9161 62.0158 16.7316C62.0158 15.5472 64.4445 15.2401 67.4481 15.2401ZM64.8182 20.4165C65.6517 20.475 66.5284 20.5043 67.4481 20.5043C68.3679 20.5043 69.2589 20.4604 70.1068 20.3873V21.5132H64.8182V20.4165Z" fill="black"/>
<path fill-rule="evenodd" clip-rule="evenodd" d="M54.7298 17.2998H52.0424L52.0137 13.9512H48.3347L48.3634 21.8181L45.403 14.1998H45.3742H42.112H42.0976L40.7467 17.7823L39.2665 14.2144H35.9755L32.3252 23.7045H35.6162L37.6856 18.3233L39.1802 21.9059H39.1946L38.6198 23.4413H41.8964L43.779 18.4696L45.8053 23.6898H48.3634V24.1139H52.0424V19.9611H54.7298V17.2998Z" fill="black"/>
<path fill-rule="evenodd" clip-rule="evenodd" d="M111.007 16.5987L114.715 22.3746H118.48L113.321 13.8789H108.808L103.821 22.3162H107.572L111.007 16.5987Z" fill="black"/>
<path fill-rule="evenodd" clip-rule="evenodd" d="M124.201 22.9008V13.7031H120.752V16.0135H117.72V18.4993H120.752V22.9008H124.201Z" fill="black"/>
<path fill-rule="evenodd" clip-rule="evenodd" d="M106.668 27.5088V32.8022H124.215V30.755H110.678V29.4974H124.215V24.1748H106.668V26.2366H120.177V27.5088H106.668Z" fill="black"/>
</svg>
